<svg width="24" height="24" viewBox="0 0 24 24" fill="none" xmlns="http://www.w3.org/2000/svg">
<path d="M3 2C3 1.44772 3.44772 1 4 1H20C20.5523 1 21 1.44772 21 2V22C21 22.5523 20.5523 23 20 23H4C3.44772 23 3 22.5523 3 22V2Z" fill="#D4D6D7"/>
<path d="M3 2C3 1.44772 3.44772 1 4 1H20C20.5523 1 21 1.44772 21 2V7.5H3V2Z" fill="#6D6E71"/>
<path d="M9 14C9 14.5523 8.55228 15 8 15C7.44772 15 7 14.5523 7 14C7 13.4477 7.44772 13 8 13C8.55228 13 9 13.4477 9 14Z" fill="#6D6E71"/>
<path d="M9 18C9 18.5523 8.55228 19 8 19C7.44772 19 7 18.5523 7 18C7 17.4477 7.44772 17 8 17C8.55228 17 9 17.4477 9 18Z" fill="#6D6E71"/>
<path d="M13 14C13 14.5523 12.5523 15 12 15C11.4477 15 11 14.5523 11 14C11 13.4477 11.4477 13 12 13C12.5523 13 13 13.4477 13 14Z" fill="#6D6E71"/>
<path d="M17 14C17 14.5523 16.5523 15 16 15C15.4477 15 15 14.5523 15 14C15 13.4477 15.4477 13 16 13C16.5523 13 17 13.4477 17 14Z" fill="#6D6E71"/>
<path fill-rule="evenodd" clip-rule="evenodd" d="M17 18C17 18.5523 16.5523 19 16 19H12C11.4477 19 11 18.5523 11 18C11 17.4477 11.4477 17 12 17H16C16.5523 17 17 17.4477 17 18Z" fill="#6D6E71"/>
<path d="M3 6C3 5.44772 3.44772 5 4 5H20C20.5523 5 21 5.44772 21 6V10C21 10.5523 20.5523 11 20 11H4C3.44772 11 3 10.5523 3 10V6Z" fill="#909293"/>
</svg>
