<svg width="24" height="24" viewBox="0 0 24 24" fill="none" xmlns="http://www.w3.org/2000/svg">
<path d="M2 11C2 9.34315 3.34315 8 5 8H19C20.6569 8 22 9.34315 22 11V21C22 21.5523 21.5523 22 21 22H3C2.44772 22 2 21.5523 2 21V11Z" fill="#909293"/>
<path fill-rule="evenodd" clip-rule="evenodd" d="M12 8C13.1046 8 14 7.10457 14 6C14 4.89543 13.1046 4 12 4C10.8954 4 10 4.89543 10 6C10 7.10457 10.8954 8 12 8ZM12 10C14.2091 10 16 8.20914 16 6C16 3.79086 14.2091 2 12 2C9.79086 2 8 3.79086 8 6C8 8.20914 9.79086 10 12 10Z" fill="#6D6E71"/>
<path d="M2 7C2 6.44771 2.44772 6 3 6H21C21.5523 6 22 6.44772 22 7V14C22 15.6569 20.6569 17 19 17H5C3.34315 17 2 15.6569 2 14V7Z" fill="#D4D6D7"/>
<path d="M15 17C15 18.6569 13.6569 20 12 20C10.3431 20 9 18.6569 9 17C9 15.3431 10.3431 14 12 14C13.6569 14 15 15.3431 15 17Z" fill="#6D6E71"/>
</svg>
