<svg width="24" height="24" viewBox="0 0 24 24" fill="none" xmlns="http://www.w3.org/2000/svg">
<path fill-rule="evenodd" clip-rule="evenodd" d="M1.00003 13.8999C1.00003 13.3476 1.44775 12.8999 2.00003 12.8999L22 12.8999C22.5523 12.8999 23 13.3476 23 13.8999C23 14.4522 22.5523 14.8999 22 14.8999L2.00003 14.8999C1.44775 14.8999 1.00003 14.4522 1.00003 13.8999Z" fill="#6D6E71"/>
<path fill-rule="evenodd" clip-rule="evenodd" d="M20.2071 5.69277C20.5976 6.08329 20.5976 6.71645 20.2071 7.10698L5.20715 22.107C4.81663 22.4975 4.18346 22.4975 3.79294 22.107C3.40241 21.7165 3.40241 21.0833 3.79293 20.6928L18.7929 5.69277C19.1834 5.30225 19.8166 5.30224 20.2071 5.69277Z" fill="#6D6E71"/>
<path fill-rule="evenodd" clip-rule="evenodd" d="M3.79292 5.69277C3.40239 6.08329 3.40239 6.71645 3.79291 7.10698L18.7928 22.107C19.1834 22.4976 19.8165 22.4976 20.2071 22.107C20.5976 21.7165 20.5976 21.0833 20.2071 20.6928L5.20713 5.69277C4.81661 5.30225 4.18344 5.30224 3.79292 5.69277Z" fill="#6D6E71"/>
<path fill-rule="evenodd" clip-rule="evenodd" d="M12 1.8999C13.1046 1.8999 14 2.79533 14 3.8999L14 8.8999L10 8.8999L10 3.8999C10 2.79533 10.8954 1.8999 12 1.8999Z" fill="#909293"/>
<mask id="mask0" mask-type="alpha" maskUnits="userSpaceOnUse" x="5" y="5" width="14" height="18">
<path d="M12 5.8999C17.829 5.8999 20.9322 12.7767 17.0757 17.1475L12.374 22.476C12.1755 22.7011 11.8246 22.7011 11.626 22.476L6.92434 17.1475C3.0678 12.7767 6.17109 5.8999 12 5.8999Z" fill="#A8A9FC"/>
</mask>
<g mask="url(#mask0)">
<path d="M12 5.8999C17.829 5.8999 20.9322 12.7767 17.0757 17.1475L12.374 22.476C12.1755 22.7011 11.8246 22.7011 11.626 22.476L6.92434 17.1475C3.0678 12.7767 6.17109 5.8999 12 5.8999Z" fill="#D4D6D7"/>
<path d="M-2 23.8999L11.2929 10.607C11.6834 10.2165 12.3166 10.2165 12.7071 10.607L26 23.8999L-2 23.8999Z" fill="#909293"/>
</g>
</svg>
