<svg width="24" height="24" viewBox="0 0 24 24" fill="none" xmlns="http://www.w3.org/2000/svg">
<path d="M2 4.90015C2 4.34786 2.44772 3.90015 3 3.90015H21C21.5523 3.90015 22 4.34786 22 4.90015V20.9001C22 21.4524 21.5523 21.9001 21 21.9001H3C2.44772 21.9001 2 21.4524 2 20.9001V4.90015Z" fill="#D4D6D7"/>
<path fill-rule="evenodd" clip-rule="evenodd" d="M14.5 19.9001C13.9477 19.9001 13.5 19.4524 13.5 18.9001L13.5 13.9001C13.5 13.3479 13.9477 12.9001 14.5 12.9001C15.0523 12.9001 15.5 13.3479 15.5 13.9001L15.5 18.9001C15.5 19.4524 15.0523 19.9001 14.5 19.9001Z" fill="#6D6E71"/>
<path fill-rule="evenodd" clip-rule="evenodd" d="M18 16.4001C18 16.9524 17.5523 17.4001 17 17.4001L12 17.4001C11.4477 17.4001 11 16.9524 11 16.4001C11 15.8479 11.4477 15.4001 12 15.4001L17 15.4001C17.5523 15.4001 18 15.8479 18 16.4001Z" fill="#6D6E71"/>
<path d="M2 4.90015C2 4.34786 2.44772 3.90015 3 3.90015H21C21.5523 3.90015 22 4.34786 22 4.90015V10.9001H2V4.90015Z" fill="#909293"/>
<path d="M15 1.90015C15 1.34786 15.4477 0.900146 16 0.900146H17C17.5523 0.900146 18 1.34786 18 1.90015V5.90015C18 6.45243 17.5523 6.90015 17 6.90015H16C15.4477 6.90015 15 6.45243 15 5.90015V1.90015Z" fill="#6D6E71"/>
<path d="M10 1.90015C10 1.34786 10.4477 0.900146 11 0.900146H12C12.5523 0.900146 13 1.34786 13 1.90015V5.90015C13 6.45243 12.5523 6.90015 12 6.90015H11C10.4477 6.90015 10 6.45243 10 5.90015V1.90015Z" fill="#6D6E71"/>
</svg>
